<svg xmlns="http://www.w3.org/2000/svg" xmlns:xlink="http://www.w3.org/1999/xlink" version="1.1" x="0px" y="0px" viewBox="0 0 60 75" enable-background="new 0 0 60 60" xml:space="preserve"><path d="M55.041,13.686c-4.081-2.055-8.272-3.097-12.456-3.097c-7.169,0-11.796,3.051-11.991,3.181L30,14.169l-0.594-0.399  c-0.194-0.129-4.822-3.181-11.991-3.181c-4.184,0-8.374,1.041-12.456,3.097l-0.74,0.373V49.03l1.707-0.477  c0.064-0.018,6.431-1.779,12.996-1.779c3.767,0,6.843,0.569,9.144,1.692L30,49.409h0.001l1.933-0.943  c2.301-1.123,5.378-1.692,9.144-1.692c6.566,0,12.932,1.761,12.996,1.779l1.707,0.477V14.059L55.041,13.686z M27.311,42.627  c-2.345-0.782-5.155-1.178-8.389-1.178c-4.905,0-9.588,0.898-12.013,1.454V15.729c3.466-1.626,6.996-2.449,10.506-2.449  c4.928,0,8.534,1.646,9.896,2.378V42.627z M53.092,42.902c-2.425-0.556-7.108-1.454-12.014-1.454c-3.233,0-6.044,0.396-8.389,1.178  V15.658c1.363-0.733,4.968-2.378,9.896-2.378c3.51,0,7.041,0.822,10.507,2.449V42.902z"/><path d="M35.312,17.792v2.45l0.086,0.173c6.962-3.482,13.818-0.438,14.637-0.049v-2.644C47.569,16.767,41.632,15.095,35.312,17.792z  "/><path d="M35.312,24.31v2.45l0.086,0.173c6.962-3.482,13.818-0.438,14.637-0.049V24.24C47.569,23.286,41.632,21.613,35.312,24.31z"/><path d="M35.312,30.83v2.449l0.086,0.173c6.962-3.481,13.818-0.438,14.637-0.049V30.76C47.569,29.805,41.632,28.133,35.312,30.83z"/><path d="M35.312,37.349v2.449l0.086,0.173c6.962-3.481,13.818-0.438,14.637-0.049v-2.644C47.569,36.324,41.632,34.652,35.312,37.349  z"/><circle cx="17.375" cy="23.75" r="5.125"/><path d="M17.375,30.375c-4.302,0-7.789,3.381-7.789,7.553h15.578C25.164,33.756,21.677,30.375,17.375,30.375z"/><text x="0" y="75" fill="#000000" font-size="5px" font-weight="bold" font-family="'Helvetica Neue', Helvetica, Arial-Unicode, Arial, Sans-serif">Created by Alex Auda Samora</text><text x="0" y="80" fill="#000000" font-size="5px" font-weight="bold" font-family="'Helvetica Neue', Helvetica, Arial-Unicode, Arial, Sans-serif">from the Noun Project</text></svg>