<svg xmlns="http://www.w3.org/2000/svg" xmlns:xlink="http://www.w3.org/1999/xlink" version="1.1" x="0px" y="0px" viewBox="0 0 32 40" style="enable-background:new 0 0 32 32;" xml:space="preserve"><g><path d="M25.728,5H7C6.448,5,6,4.552,6,4s0.448-1,1-1h18.728c0.553,0,1,0.448,1,1S26.28,5,25.728,5z"/><path d="M20.935,24h-9.785c-0.552,0-1-0.447-1-1s0.448-1,1-1h9.785c0.553,0,1,0.447,1,1S21.487,24,20.935,24z"/><path d="M20.935,20H11c-0.552,0-1-0.447-1-1s0.448-1,1-1h9.935c0.553,0,1,0.447,1,1S21.487,20,20.935,20z"/><path d="M20.935,16H11c-0.552,0-1-0.448-1-1s0.448-1,1-1h9.935c0.553,0,1,0.448,1,1S21.487,16,20.935,16z"/><path d="M28,32H7c-2.206,0-4-1.794-4-4V4c0-2.206,1.794-4,4-4h21c0.553,0,1,0.448,1,1s-0.447,1-1,1H7C5.897,2,5,2.897,5,4   s0.897,2,2,2h21c0.553,0,1,0.448,1,1v24C29,31.553,28.553,32,28,32z M5,7.463V28c0,1.103,0.897,2,2,2h20V8H7   C6.272,8,5.589,7.805,5,7.463z"/></g><text x="0" y="47" fill="#000000" font-size="5px" font-weight="bold" font-family="'Helvetica Neue', Helvetica, Arial-Unicode, Arial, Sans-serif">Created by ✦ Shmidt Sergey ✦</text><text x="0" y="52" fill="#000000" font-size="5px" font-weight="bold" font-family="'Helvetica Neue', Helvetica, Arial-Unicode, Arial, Sans-serif">from the Noun Project</text></svg>