<?xml version="1.0" encoding="utf-8"?>
<!-- Generator: Adobe Illustrator 16.0.0, SVG Export Plug-In . SVG Version: 6.00 Build 0)  -->
<!DOCTYPE svg PUBLIC "-//W3C//DTD SVG 1.1//EN" "http://www.w3.org/Graphics/SVG/1.1/DTD/svg11.dtd">
<svg version="1.1" id="Calque_1" xmlns="http://www.w3.org/2000/svg" xmlns:xlink="http://www.w3.org/1999/xlink" x="0px" y="0px"
	 width="662.606px" height="503.549px" viewBox="0 0 662.606 503.549" enable-background="new 0 0 662.606 503.549"
	 xml:space="preserve">
<g>
	<path fill="#7ACC3F" d="M72.115,503.549c-0.173,0-0.346,0-0.506-0.009c-4.112-0.15-11.585-2.336-15.541-15.138l-36.437-118.05
		c-1.654,5.228-7.219,8.159-12.462,6.528c-5.268-1.621-8.213-7.209-6.583-12.468l3.562-11.532
		c4.018-13.044,11.421-14.979,15.482-14.979c4.047,0,11.45,1.935,15.476,14.983l37.607,121.812l34.064-86.134
		c4.949-12.533,13.329-14.07,16.705-14.15c3.312-0.139,11.821,1.066,17.361,13.357l34.756,77.321l33.073-70.222
		c4.09-8.699,14.439-15.257,24.061-15.257h34.378c6.2,0,11.496,2.672,14.56,7.337c3.066,4.677,3.4,10.614,0.93,16.28l-32.289,74.159
		h35.393c5.507,0,9.984,4.473,9.984,9.974c0,5.514-4.477,9.984-9.984,9.984h-40.054c-6.2,0-11.501-2.679-14.556-7.351
		c-3.067-4.672-3.409-10.609-0.936-16.276l32.293-74.154h-29.72c-1.926,0-5.192,2.054-6.02,3.801l-33.69,71.548
		c-5.596,11.884-14.029,13.214-17.511,13.214h-0.119c-3.407-0.031-11.935-1.402-17.384-13.51l-33.944-75.517l-35.816,90.549
		C83.527,501.603,76.323,503.549,72.115,503.549"/>
	<path fill="#231F20" d="M237.674,347.864c0-10.029-8.133-18.163-18.171-18.163c-10.022,0-18.162,8.134-18.162,18.163
		c0,10.043,8.139,18.163,18.162,18.163C229.541,366.027,237.674,357.907,237.674,347.864"/>
	<path fill="#231F20" d="M365.86,382.858c-14.518,0-27.778,5.409-37.953,14.282v-51.798c0-5.513-4.47-9.98-9.978-9.98
		s-9.976,4.468-9.976,9.98v95.422c0,31.933,25.978,57.911,57.906,57.911c31.936,0,57.913-25.979,57.913-57.911
		C423.773,408.836,397.796,382.858,365.86,382.858 M365.86,478.731c-20.925,0-37.953-17.035-37.953-37.967
		c0-20.938,17.028-37.955,37.953-37.955c20.934,0,37.964,17.017,37.964,37.955C403.824,461.696,386.794,478.731,365.86,478.731"/>
	<path fill="#231F20" d="M450.788,382.767c-5.51,0-9.974,4.464-9.974,9.974v96.056c0,5.51,4.464,9.976,9.974,9.976
		c5.505,0,9.975-4.466,9.975-9.976V392.74C460.763,387.23,456.293,382.767,450.788,382.767"/>
	<path fill="#231F20" d="M498.364,382.861c-5.514,0-9.984,4.461-9.984,9.973v95.962c0,5.51,4.471,9.976,9.984,9.976
		c5.501,0,9.971-4.466,9.971-9.976v-95.962C508.335,387.322,503.865,382.861,498.364,382.861"/>
	<g>
		<defs>
			<path id="SVGID_1_" d="M439.536,225.102c-0.057,0.011-0.119,0.011-0.173,0.016c-33.735,16.397-61.073,53.842-58.862,84.687
				c1.072,14.809,6.824,25.948,15.993,33.908c10.728,3.323,23.514,4.39,37.384,3.593c-11.722-8.415-19.207-20.91-20.452-38.318
				c-2.049-28.507,20.062-62.391,49.568-81.711c-2.301-0.648-4.704-1.176-7.194-1.569c-3.389-0.527-6.949-0.808-10.691-0.808
				C443.294,224.898,441.435,224.966,439.536,225.102"/>
		</defs>
		<clipPath id="SVGID_2_">
			<use xlink:href="#SVGID_1_"  overflow="visible"/>
		</clipPath>
		
			<linearGradient id="SVGID_3_" gradientUnits="userSpaceOnUse" x1="36.4668" y1="671.9766" x2="38.7595" y2="671.9766" gradientTransform="matrix(0 58.8783 58.8783 0 -39144.25 -1994.4849)">
			<stop  offset="0" style="stop-color:#DFF3D1"/>
			<stop  offset="0.4786" style="stop-color:#AFE08C"/>
			<stop  offset="1" style="stop-color:#7ACC3F"/>
		</linearGradient>
		<rect x="378.29" y="224.9" clip-path="url(#SVGID_2_)" fill="url(#SVGID_3_)" width="84.704" height="123.202"/>
	</g>
	<g>
		<defs>
			<path id="SVGID_4_" d="M439.536,225.102c-0.057,0.011-0.119,0.011-0.173,0.016c-33.735,16.397-61.073,53.842-58.862,84.687
				c1.072,14.809,6.824,25.948,15.993,33.908c10.728,3.323,23.514,4.39,37.384,3.593c-11.722-8.415-19.207-20.91-20.452-38.318
				c-2.049-28.507,20.062-62.391,49.568-81.711c-5.432-1.527-11.394-2.376-17.904-2.376
				C443.28,224.898,441.429,224.966,439.536,225.102"/>
		</defs>
		<clipPath id="SVGID_5_">
			<use xlink:href="#SVGID_4_"  overflow="visible"/>
		</clipPath>
		<rect x="378.29" y="224.9" clip-path="url(#SVGID_5_)" fill="#7ACC3F" width="84.704" height="123.202"/>
	</g>
	<g>
		<defs>
			<path id="SVGID_6_" d="M364.245,304.746c1.499,20.879,13.844,33.21,32.223,38.938c-9.151-7.957-14.895-19.09-15.967-33.881
				c-2.211-30.845,25.124-68.289,58.862-84.687C400.527,228.032,361.817,271.085,364.245,304.746"/>
		</defs>
		<clipPath id="SVGID_7_">
			<use xlink:href="#SVGID_6_"  overflow="visible"/>
		</clipPath>
		
			<linearGradient id="SVGID_8_" gradientUnits="userSpaceOnUse" x1="35.3394" y1="671.7451" x2="37.6319" y2="671.7451" gradientTransform="matrix(0 117.7907 117.7907 0 -78724.8438 -4143.0664)">
			<stop  offset="0" style="stop-color:#1D1D1B"/>
			<stop  offset="1" style="stop-color:#1D1D1B"/>
		</linearGradient>
		<rect x="361.817" y="225.118" clip-path="url(#SVGID_7_)" fill="url(#SVGID_8_)" width="77.544" height="118.566"/>
	</g>
	<g>
		<defs>
			<path id="SVGID_9_" d="M473.642,280.701c-8.769,25.053-0.724,51.916,18.23,68.312c14.239,3.447,28.47,2.775,41.001-1.301
				c-13.501-12.493-19.068-32.235-12.603-50.674c6.963-19.877,25.752-32.175,45.707-31.857c-5.695-10.201-14.291-19.246-25.1-26.069
				c-2.641-0.337-5.277-0.501-7.896-0.501C507.025,238.61,482.723,254.793,473.642,280.701"/>
		</defs>
		<clipPath id="SVGID_10_">
			<use xlink:href="#SVGID_9_"  overflow="visible"/>
		</clipPath>
		<rect x="464.873" y="238.61" clip-path="url(#SVGID_10_)" fill="#7ACC3F" width="101.104" height="113.85"/>
	</g>
	<g>
		<defs>
			<path id="SVGID_11_" d="M520.271,297.038c-6.466,18.438-0.898,38.181,12.603,50.674c17.628-5.711,31.899-18.114,37.969-35.44
				c5.519-15.742,3.238-32.546-4.869-47.091c-0.253-0.007-0.504-0.009-0.755-0.009C545.547,265.172,527.146,277.412,520.271,297.038
				"/>
		</defs>
		<clipPath id="SVGID_12_">
			<use xlink:href="#SVGID_11_"  overflow="visible"/>
		</clipPath>
		
			<linearGradient id="SVGID_13_" gradientUnits="userSpaceOnUse" x1="35.9912" y1="672.7695" x2="38.2858" y2="672.7695" gradientTransform="matrix(0 80.6873 80.6873 0 -53738.8906 -2781.061)">
			<stop  offset="0" style="stop-color:#58595B"/>
			<stop  offset="1" style="stop-color:#231F20"/>
		</linearGradient>
		<rect x="513.805" y="265.172" clip-path="url(#SVGID_12_)" fill="url(#SVGID_13_)" width="62.556" height="82.54"/>
	</g>
	<g>
		<defs>
			<path id="SVGID_14_" d="M472.738,231.104c-3.032-1.547-6.251-2.854-9.731-3.838l-0.013,0.009
				c-29.506,19.32-51.617,53.205-49.568,81.711c1.245,17.408,8.73,29.903,20.452,38.318c0.807-0.041,1.584-0.063,2.391-0.117
				c11.278-0.797,21.749-3.933,30.904-8.714c5.129,3.285,10.724,6.099,16.807,8.232c2.611,0.921,5.243,1.655,7.87,2.287
				c-1.34-1.151-2.604-2.381-3.835-3.642c-0.286-0.305-0.57-0.614-0.853-0.928c-0.947-1.012-1.859-2.038-2.735-3.104
				c-0.253-0.318-0.504-0.634-0.761-0.959c-0.907-1.155-1.771-2.329-2.592-3.548c-0.156-0.229-0.315-0.457-0.468-0.681
				c-10.478-15.82-13.709-36.159-6.965-55.432c7.029-20.026,23.157-34.215,42.113-39.629c0.308-0.096,0.63-0.16,0.943-0.254
				c1.536-0.406,3.089-0.766,4.651-1.069c0.529-0.099,1.062-0.183,1.593-0.276c1.384-0.228,2.781-0.396,4.175-0.533
				c0.622-0.059,1.238-0.127,1.865-0.158c1.396-0.094,2.798-0.122,4.216-0.114c0.582,0,1.16-0.017,1.746-0.008
				c1.976,0.067,3.949,0.198,5.934,0.452h0.021c-5.029-3.169-10.488-5.919-16.418-7.997c-8.773-3.074-17.66-4.523-26.267-4.523
				C489.263,226.592,480.622,228.158,472.738,231.104"/>
		</defs>
		<clipPath id="SVGID_15_">
			<use xlink:href="#SVGID_14_"  overflow="visible"/>
		</clipPath>
		
			<linearGradient id="SVGID_16_" gradientUnits="userSpaceOnUse" x1="35.3232" y1="672.1016" x2="37.6154" y2="672.1016" gradientTransform="matrix(0 119.6619 119.6619 0 -79948.8516 -4210.8125)">
			<stop  offset="0" style="stop-color:#1D1D1B"/>
			<stop  offset="1" style="stop-color:#1D1D1B"/>
		</linearGradient>
		<rect x="411.377" y="226.592" clip-path="url(#SVGID_15_)" fill="url(#SVGID_16_)" width="129.522" height="122.401"/>
	</g>
	<g>
		<defs>
			<path id="SVGID_17_" d="M514.553,306.941c-7.015,26.097,6.388,60.689,32.481,67.7c26.105,7.01,55.018-16.233,62.012-42.325
				c7.023-26.092-8.455-52.923-34.542-59.929c-4.256-1.144-8.529-1.692-12.735-1.692
				C540.177,270.695,520.425,285.096,514.553,306.941"/>
		</defs>
		<clipPath id="SVGID_18_">
			<use xlink:href="#SVGID_17_"  overflow="visible"/>
		</clipPath>
		
			<linearGradient id="SVGID_19_" gradientUnits="userSpaceOnUse" x1="35.3091" y1="672.4961" x2="37.6018" y2="672.4961" gradientTransform="matrix(0 121.9007 121.9007 0 -81415.9062 -4292.1533)">
			<stop  offset="0" style="stop-color:#58595B"/>
			<stop  offset="1" style="stop-color:#231F20"/>
		</linearGradient>
		<rect x="507.538" y="270.695" clip-path="url(#SVGID_18_)" fill="url(#SVGID_19_)" width="108.531" height="110.954"/>
	</g>
	<path fill="#FFFFFF" d="M523.552,312.218c4.584-17.113,18.17-28.34,30.327-25.072c12.147,3.261,18.273,19.773,13.673,36.9
		c-4.592,17.106-18.164,28.329-30.312,25.068C525.077,345.847,518.949,329.333,523.552,312.218"/>
	<path d="M539.986,313.504c1.187-4.41,4.674-7.306,7.825-6.46c3.124,0.829,4.712,5.103,3.523,9.501
		c-1.186,4.421-4.686,7.319-7.823,6.478C540.371,322.173,538.806,317.911,539.986,313.504"/>
	<path fill="#FFFFFF" d="M570.665,324.867c3.839-14.32,15.191-23.697,25.361-20.977c10.159,2.739,15.286,16.556,11.427,30.876
		c-3.83,14.294-15.187,23.673-25.344,20.954C571.933,352.984,566.811,339.17,570.665,324.867"/>
	<path d="M584.826,325.83c0.997-3.708,3.944-6.168,6.604-5.446c2.63,0.708,3.971,4.309,2.975,8.036
		c-0.997,3.722-3.955,6.165-6.607,5.451C585.142,333.172,583.829,329.562,584.826,325.83"/>
	<g>
		<defs>
			<path id="SVGID_20_" d="M574.244,152.227c-27.104,19.122-50.874,47.835-59.472,65.15c-0.258,0.516-0.275,1.109-0.038,1.639
				c0.239,0.532,0.689,0.93,1.238,1.092c3.397,0.989,14.887,4.445,20.679,7.5c2.179,1.145,4.414,2.479,7.039,4.215
				c0.318,0.205,0.67,0.322,1.03,0.322c0.179,0,0.356-0.018,0.533-0.062c22.125-5.718,46.215-16.822,64.435-29.688
				c17.982-12.708,33.165-27.148,42.737-40.663c9.971-14.058,12.729-25.663,7.782-32.662c-2.894-4.09-8.022-6.228-15.259-6.362
				c-0.23-0.004-0.473-0.004-0.71-0.004C626.806,122.699,600.089,133.954,574.244,152.227"/>
		</defs>
		<clipPath id="SVGID_21_">
			<use xlink:href="#SVGID_20_"  overflow="visible"/>
		</clipPath>
		
			<linearGradient id="SVGID_22_" gradientUnits="userSpaceOnUse" x1="35.3086" y1="672.627" x2="37.6016" y2="672.627" gradientTransform="matrix(0 121.8995 121.8995 0 -81403.0312 -4291.8857)">
			<stop  offset="0" style="stop-color:#1D1D1B"/>
			<stop  offset="1" style="stop-color:#1D1D1B"/>
		</linearGradient>
		<rect x="514.497" y="122.701" clip-path="url(#SVGID_21_)" fill="url(#SVGID_22_)" width="150.656" height="109.443"/>
	</g>
	<g>
		<defs>
			<path id="SVGID_23_" d="M403.303,1.403c-12.506,4.74-19.657,20.92-20.139,45.531c-0.462,24.007,5.411,53.42,16.564,82.808
				c21.005,55.363,69.796,112.09,89.517,112.449c1.299,0.028,2.49-0.199,3.524-0.665c18.182-8.222,20.455-88.204-1.659-146.461
				c-20.719-54.619-54.17-94.591-79.523-95.063C411.45,0.002,411.316,0,411.18,0C408.425,0,405.771,0.467,403.303,1.403"/>
		</defs>
		<clipPath id="SVGID_24_">
			<use xlink:href="#SVGID_23_"  overflow="visible"/>
		</clipPath>
		<g clip-path="url(#SVGID_24_)">
			<rect x="382.702" fill="#1D1D1B" width="130.522" height="242.219"/>
		</g>
	</g>
</g>
</svg>
